<svg aria-hidden="true" style="position: absolute; width: 0; height: 0; overflow: hidden;" version="1.1" xmlns="http://www.w3.org/2000/svg" xmlns:xlink="http://www.w3.org/1999/xlink">
<defs>

<symbol id="icon-eye-open" viewBox="0 0 32 32">
<path stroke-linejoin="miter" stroke-linecap="butt" stroke-miterlimit="4" stroke-width="2.6667" stroke="currentColor" d="M16 25.331c10.171 0.163 13.333-9.169 13.333-9.169s-3.034-9.495-13.333-9.495c-10.299 0-13.333 9.495-13.333 9.495s3.162 9.006 13.333 9.169z"></path>
<path stroke-linejoin="miter" stroke-linecap="butt" stroke-miterlimit="4" stroke-width="2.6667" stroke="currentColor"  d="M19.333 16c0 1.841-1.492 3.333-3.333 3.333s-3.333-1.492-3.333-3.333c0-1.841 1.492-3.333 3.333-3.333s3.333 1.492 3.333 3.333z"></path>
</symbol>
<symbol id="icon-sms-red" viewBox="0 0 32 32">
<path stroke="currentColor" d="M5.474 24.143v0zM7.025 19.784l-1.333-0.016v0.016h1.333zM7.057 17.148l1.333 0.016v-0.016h-1.333zM26.534 24.164v0zM25.042 19.784l-1.333-0.017v0.017h1.333zM25.074 17.278l1.333 0.017v-0.017h-1.333zM21.6 25.386c0-0.736-0.597-1.333-1.333-1.333s-1.333 0.597-1.333 1.333h2.667zM13.067 25.386c0-0.736-0.597-1.333-1.333-1.333s-1.333 0.597-1.333 1.333h2.667zM6.533 24.954c0.908-1.185 1.826-2.974 1.826-5.171h-2.667c0 1.442-0.606 2.674-1.276 3.549l2.117 1.622zM8.358 19.8l0.033-2.636-2.666-0.033-0.033 2.636 2.666 0.033zM27.609 23.375c-0.641-0.873-1.233-2.121-1.233-3.591h-2.667c0 2.193 0.878 3.982 1.751 5.17l2.149-1.579zM26.375 19.801l0.033-2.505-2.666-0.035-0.033 2.505 2.666 0.035zM26.408 17.278c0-5.716-4.67-10.331-10.408-10.331v2.667c4.286 0 7.741 3.442 7.741 7.664h2.667zM25.991 26.719c0.968 0 1.58-0.675 1.828-1.251 0.246-0.572 0.298-1.401-0.21-2.093l-2.149 1.579c-0.181-0.247-0.123-0.465-0.091-0.538 0.033-0.077 0.21-0.363 0.623-0.363v2.667zM8.391 17.148c0-4.15 3.396-7.534 7.609-7.534v-2.667c-5.665 0-10.276 4.556-10.276 10.2h2.667zM6.010 24.053c0.422 0 0.596 0.297 0.625 0.366 0.027 0.066 0.089 0.287-0.102 0.536l-2.117-1.622c-0.531 0.693-0.483 1.535-0.243 2.111 0.241 0.58 0.853 1.276 1.837 1.276v-2.667zM25.991 24.053h-19.981v2.667h19.981v-2.667zM18.933 25.386c0 1.348-1.214 2.614-2.933 2.614v2.667c2.993 0 5.6-2.269 5.6-5.281h-2.667zM16 28c-1.72 0-2.933-1.266-2.933-2.614h-2.667c0 3.012 2.607 5.281 5.6 5.281v-2.667zM17.511 5.474c0 0.797-0.66 1.474-1.511 1.474v2.667c2.291 0 4.178-1.837 4.178-4.14h-2.667zM16 6.947c-0.851 0-1.511-0.676-1.511-1.474h-2.667c0 2.303 1.887 4.14 4.178 4.14v-2.667zM14.489 5.474c0-0.797 0.66-1.474 1.511-1.474v-2.667c-2.291 0-4.178 1.837-4.178 4.14h2.667zM16 4c0.851 0 1.511 0.676 1.511 1.474h2.667c0-2.303-1.887-4.14-4.178-4.14v2.667z"></path>
<path fill="none" stroke="#ff321f" style="stroke: var(--color1, #ff321f)" stroke-linejoin="round" stroke-linecap="round" stroke-miterlimit="4" stroke-width="2.6667" d="M22.667 4.667c0 0 1.58 0.736 2.667 2 0.989 1.151 1.333 2 1.333 2M9.333 4.667c0 0-1.58 0.736-2.667 2-0.989 1.151-1.333 2-1.333 2"></path>
</symbol>
<symbol id="icon-add-square" viewBox="0 0 32 32">
<path stroke-linejoin="miter" stroke-linecap="round" stroke-miterlimit="4" stroke-width="2" stroke="currentColor" d="M20.5 16h-4.5M16 16h-4.5M16 16v4.5M16 16v-4.5M28 16c0 6.627-5.373 12-12 12s-12-5.373-12-12 5.373-12 12-12 12 5.373 12 12z"></path>
</symbol>
<symbol id="icon-arrow-refresh" viewBox="0 0 32 32">
<path stroke-linejoin="round" stroke-linecap="round" stroke-miterlimit="4" stroke-width="2.6667" stroke="currentColor" d="M25.896 10.685c-1.888-3.222-5.334-5.352-9.277-5.352-0.002 0-0.004 0-0.006 0h0c-0.002 0-0.004 0-0.006 0-4.468 0-8.297 2.733-9.908 6.618l-0.026 0.071M22.643 12.023h5.357v-5.352M7.437 21.389c1.888 3.222 5.334 5.352 9.278 5.352 0.002 0 0.005 0 0.007 0h-0c0.002 0 0.003 0 0.005 0 4.468 0 8.298-2.734 9.909-6.62l0.026-0.071M10.692 20.051h-5.359v5.352"></path>
</symbol>
<symbol id="icon-check-contained" viewBox="0 0 33 32">
<path stroke-linejoin="round" stroke-linecap="round" stroke-miterlimit="4" stroke-width="2.6667" stroke="currentColor" d="M20.856 13.311l-5.689 5.689-1.94-1.939M16.667 4c-6.627 0-12 5.373-12 12s5.373 12 12 12v0c6.627 0 12-5.373 12-12s-5.373-12-12-12v0z"></path>
</symbol>
<symbol id="icon-clock" viewBox="0 0 32 32">
<path  stroke="currentColor" d="M20.745 20.265c0.126 0.043 0.271 0.068 0.421 0.068 0.737 0 1.334-0.597 1.334-1.334 0-0.586-0.378-1.083-0.903-1.263l-0.009-0.003-0.841 2.532zM16.667 17.5h-1.333c0 0 0 0 0 0 0 0.586 0.378 1.083 0.903 1.262l0.009 0.003 0.421-1.265zM18 11.228c0-0.736-0.597-1.333-1.333-1.333s-1.333 0.597-1.333 1.333v0h2.667zM21.588 17.735l-4.5-1.5-0.843 2.531 4.5 1.5 0.843-2.531zM18 17.5v-6.272h-2.667v6.272h2.667zM27.333 16c0 5.891-4.776 10.667-10.667 10.667v0 2.667c7.364 0 13.333-5.969 13.333-13.333h-2.667zM16.667 26.667c-5.891 0-10.667-4.776-10.667-10.667v0h-2.667c0 7.364 5.969 13.333 13.333 13.333v-2.667zM6 16c0-5.891 4.776-10.667 10.667-10.667v0-2.667c-7.364 0-13.333 5.969-13.333 13.333h2.667zM16.667 5.333c5.891 0 10.667 4.776 10.667 10.667v0h2.667c0-7.364-5.969-13.333-13.333-13.333v2.667z"></path>
</symbol>
<symbol id="icon-globe" viewBox="0 0 32 32">
<path stroke="currentColor" d="M5.5 11.667c-0.736 0-1.333 0.597-1.333 1.333s0.597 1.333 1.333 1.333v0-2.667zM26.5 14.333c0.736 0 1.333-0.597 1.333-1.333s-0.597-1.333-1.333-1.333v0 2.667zM5.625 18.416c-0.736 0-1.333 0.597-1.333 1.333s0.597 1.333 1.333 1.333v0-2.667zM26.625 21.083c0.736 0 1.333-0.597 1.333-1.333s-0.597-1.333-1.333-1.333v0 2.667zM26.667 16c0 5.891-4.776 10.667-10.667 10.667v0 2.667c7.364 0 13.333-5.969 13.333-13.333h-2.667zM16 26.667c-5.891 0-10.667-4.776-10.667-10.667v0h-2.667c0 7.364 5.969 13.333 13.333 13.333v-2.667zM5.333 16c0-5.891 4.776-10.667 10.667-10.667v0-2.667c-7.364 0-13.333 5.969-13.333 13.333h2.667zM16 5.333c5.891 0 10.667 4.776 10.667 10.667v0h2.667c0-7.364-5.969-13.333-13.333-13.333v2.667zM16 26.667c-0.284 0-0.659-0.125-1.117-0.568-0.464-0.449-0.943-1.163-1.373-2.147-0.86-1.968-1.427-4.777-1.427-7.952h-2.667c0 3.453 0.611 6.643 1.651 9.020 0.519 1.187 1.171 2.229 1.963 2.996 0.8 0.772 1.805 1.317 2.971 1.317v-2.667zM12.083 16c0-3.173 0.567-5.984 1.427-7.951 0.431-0.987 0.909-1.699 1.373-2.147 0.459-0.444 0.833-0.569 1.117-0.569v-2.667c-1.165 0-2.172 0.547-2.971 1.317-0.792 0.767-1.444 1.809-1.963 2.996-1.040 2.377-1.651 5.567-1.651 9.020h2.667zM16 29.333c1.165 0 2.172-0.547 2.971-1.317 0.792-0.767 1.444-1.811 1.963-2.996 1.040-2.377 1.651-5.567 1.651-9.020h-2.667c0 3.173-0.567 5.984-1.427 7.951-0.431 0.987-0.909 1.699-1.373 2.147-0.459 0.444-0.833 0.569-1.117 0.569v2.667zM22.584 16c0-3.453-0.611-6.643-1.651-9.020-0.519-1.187-1.171-2.229-1.963-2.996-0.8-0.771-1.805-1.317-2.971-1.317v2.667c0.284 0 0.659 0.125 1.117 0.568 0.464 0.449 0.943 1.163 1.373 2.147 0.86 1.968 1.427 4.777 1.427 7.952h2.667zM5.499 14.333h21v-2.667h-20.999v2.667zM5.624 21.083h21v-2.667h-20.997v2.667z"></path>
</symbol>
<symbol id="icon-paperclip" viewBox="0 0 33 32">
<path stroke-linejoin="miter" stroke-linecap="round" stroke-miterlimit="4" stroke-width="2.6667" stroke="currentColor" d="M25.943 15.34l-9.395 9.395c-2.556 2.556-6.391 2.859-8.997 0.252-2.557-2.557-2.225-6.261 0.381-8.868l10.56-10.56c0.746-0.749 1.777-1.212 2.917-1.212s2.172 0.463 2.917 1.212l0 0c0.749 0.746 1.212 1.777 1.212 2.917s-0.463 2.172-1.212 2.917l-10.747 10.745c-0.371 0.359-0.877 0.58-1.434 0.58-1.139 0-2.063-0.924-2.063-2.063 0-0.558 0.222-1.064 0.582-1.436l-0.001 0.001 9.579-9.58"></path>
</symbol>
<symbol id="icon-photo" viewBox="0 0 32 32">
<path stroke-linejoin="miter" stroke-linecap="butt" stroke-miterlimit="4" stroke-width="0.5" stroke="currentColor" d="M16 0.25c8.698 0 15.75 7.051 15.75 15.75s-7.052 15.75-15.75 15.75c-8.698 0-15.75-7.052-15.75-15.75s7.051-15.75 15.75-15.75z"></path>
<path stroke-linejoin="miter" stroke-linecap="butt" stroke-miterlimit="4" stroke-width="0.5" stroke="currentColor" d="M16 10.5v5.5M16 21.5v-5.5M16 16h-5.5M16 16h5.5"></path>
</symbol>
<symbol id="icon-account" viewBox="0 0 32 32">
<path stroke-linejoin="miter" stroke-linecap="butt" stroke-miterlimit="4" stroke-width="2.6667" stroke="currentColor" d="M29.333 16c0 7.364-5.97 13.333-13.333 13.333s-13.333-5.97-13.333-13.333c0-7.364 5.97-13.333 13.333-13.333s13.333 5.97 13.333 13.333z"></path>
<path stroke-linejoin="miter" stroke-linecap="round" stroke-miterlimit="4" stroke-width="2.6667" stroke="currentColor" d="M6.667 24c1.412-2.359 4.507-3.972 9.333-3.972s7.921 1.613 9.333 3.972M19.835 11.84c0 2.12-1.717 3.84-3.835 3.84-2.118-0.002-3.835-1.719-3.835-3.837 0-0.001 0-0.002 0-0.003v0c0-2.12 1.717-3.84 3.835-3.84 2.118 0.002 3.835 1.719 3.835 3.837 0 0.001 0 0.002 0 0.003v-0z"></path>
</symbol>
<symbol id="icon-check-fill" viewBox="0 0 32 32">
<path stroke-linejoin="round" stroke-linecap="round" stroke-miterlimit="4" stroke-width="2.6667" stroke="currentColor" d="M20 13.333l-5.967 5.333-2.033-1.819M26.667 9.333v13.333c0 2.209-1.791 4-4 4v0h-13.333c-2.209 0-4-1.791-4-4v0-13.333c0-2.209 1.791-4 4-4v0h13.333c2.209 0 4 1.791 4 4v0z"></path>
</symbol>
<symbol id="icon-check-square-contained" viewBox="0 0 32 32">
<path stroke-linejoin="round" stroke-linecap="round" stroke-miterlimit="4" stroke-width="2.6667" stroke="currentColor" d="M9.333 26.667c-2.209 0-4-1.791-4-4v-13.333c0-2.209 1.791-4 4-4h13.333c2.209 0 4 1.791 4 4v13.333c0 2.209-1.791 4-4 4h-13.333z"></path>
</symbol>
<symbol id="icon-club" viewBox="0 0 32 32">
<path stroke-linejoin="round" stroke-linecap="round" stroke-miterlimit="4" stroke-width="2.6667" stroke="currentColor" d="M29.333 13.333v5.333M2.667 13.333v5.333"></path>
<path stroke-linejoin="miter" stroke-linecap="butt" stroke-miterlimit="4" stroke-width="2.6667" stroke="currentColor" d="M13.333 16c0 3.681 0 6.667-3.333 6.667s-3.333-2.985-3.333-6.667c0-3.681 0-6.667 3.333-6.667s3.333 2.985 3.333 6.667zM25.333 16c0 3.681 0 6.667-3.333 6.667s-3.333-2.985-3.333-6.667c0-3.681 0-6.667 3.333-6.667s3.333 2.985 3.333 6.667zM13.333 16h5.333"></path>
</symbol>
<symbol id="icon-star-default" viewBox="0 0 32 32">
<path stroke-linejoin="round" stroke-linecap="butt" stroke-miterlimit="4" stroke-width="2.6667" stroke="currentColor" d="M15.327 3.619c0.275-0.558 1.071-0.558 1.347 0l3.565 7.224c0.109 0.222 0.321 0.375 0.565 0.411l7.972 1.158c0.616 0.089 0.862 0.846 0.416 1.281l-5.769 5.623c-0.177 0.172-0.258 0.421-0.216 0.665l1.362 7.94c0.105 0.613-0.539 1.081-1.089 0.792l-7.131-3.749c-0.219-0.115-0.48-0.115-0.699 0l-7.131 3.749c-0.551 0.289-1.195-0.178-1.089-0.792l1.362-7.94c0.042-0.244-0.039-0.492-0.216-0.665l-5.769-5.623c-0.446-0.434-0.2-1.191 0.416-1.281l7.972-1.158c0.245-0.036 0.456-0.189 0.565-0.411l3.565-7.224z"></path>
</symbol>
<symbol id="icon-heart-fill" viewBox="0 0 32 32">
<path stroke-linejoin="round" stroke-linecap="butt" stroke-miterlimit="4" stroke-width="2.6667" stroke="currentColor" d="M5.075 8.275c1.2-1.2 2.828-1.874 4.525-1.874s3.325 0.674 4.525 1.874l1.875 1.874 1.875-1.874c0.59-0.611 1.297-1.099 2.077-1.434s1.621-0.512 2.47-0.519c0.85-0.007 1.693 0.155 2.479 0.476s1.501 0.797 2.102 1.398c0.601 0.601 1.076 1.315 1.398 2.102s0.484 1.629 0.476 2.479c-0.007 0.85-0.184 1.69-0.519 2.47s-0.823 1.487-1.434 2.077l-10.925 10.926-10.925-10.926c-1.2-1.2-1.874-2.828-1.874-4.525s0.674-3.325 1.874-4.525z"></path>
</symbol>
<symbol id="icon-star-fill" viewBox="0 0 32 32">
<path stroke-linejoin="round" stroke-linecap="butt" stroke-miterlimit="4" stroke-width="2.6667" stroke="currentColor" d="M15.327 3.619c0.275-0.558 1.071-0.558 1.347 0l3.565 7.224c0.109 0.222 0.321 0.375 0.565 0.411l7.972 1.158c0.616 0.089 0.862 0.846 0.416 1.281l-5.769 5.623c-0.177 0.172-0.258 0.421-0.216 0.665l1.362 7.94c0.105 0.613-0.539 1.081-1.089 0.792l-7.131-3.749c-0.219-0.115-0.48-0.115-0.699 0l-7.131 3.749c-0.551 0.289-1.195-0.178-1.089-0.792l1.362-7.94c0.042-0.244-0.039-0.492-0.216-0.665l-5.769-5.623c-0.446-0.434-0.2-1.191 0.416-1.281l7.972-1.158c0.245-0.036 0.456-0.189 0.565-0.411l3.565-7.224z"></path>
</symbol>
<symbol id="icon-menu" viewBox="0 0 32 32">
<path stroke-linejoin="round" stroke-linecap="round" stroke-miterlimit="4" stroke-width="2.6667" stroke="currentColor" d="M3.2 4.799h25.6M3.2 11.733h25.6M3.2 18.666h25.6M3.2 25.599h25.6"></path>
</symbol>
<symbol id="icon-heart-none" viewBox="0 0 32 32">
<path stroke-linejoin="round" stroke-linecap="butt" stroke-miterlimit="4" stroke-width="2.6667" stroke="currentColor" d="M5.075 8.275c1.2-1.2 2.828-1.874 4.525-1.874s3.325 0.674 4.525 1.874l1.875 1.874 1.875-1.874c0.59-0.611 1.297-1.099 2.077-1.434s1.621-0.512 2.47-0.519c0.85-0.007 1.693 0.155 2.479 0.476s1.501 0.797 2.102 1.398c0.601 0.601 1.076 1.315 1.398 2.102s0.484 1.629 0.476 2.479c-0.007 0.85-0.184 1.69-0.519 2.47s-0.823 1.487-1.434 2.077l-10.925 10.926-10.925-10.926c-1.2-1.2-1.874-2.828-1.874-4.525s0.674-3.325 1.874-4.525v0z"></path>
</symbol>
<symbol id="icon-trainer" viewBox="0 0 32 32">
<path stroke-linejoin="miter" stroke-linecap="round" stroke-miterlimit="4" stroke-width="2.6667" stroke="currentColor" d="M3.2 24.289c1.465-2.443 4.675-4.116 9.684-4.116s8.219 1.672 9.684 4.116M23.495 18.321c2.653 1.326 3.979 2.652 5.305 5.305M20.736 8.183c1.248 0.671 2.097 1.99 2.097 3.506 0 1.473-0.8 2.759-1.989 3.447M16.863 11.69c0 2.197-1.781 3.979-3.979 3.979s-3.979-1.781-3.979-3.979c0-2.197 1.781-3.979 3.979-3.979s3.979 1.781 3.979 3.979z"></path>
</symbol>
<symbol id="icon-arrow-up" viewBox="0 0 32 32">
<path stroke-linejoin="round" stroke-linecap="round" stroke-miterlimit="4" stroke-width="2.6667" stroke="currentColor" d="M16 25.333v-18.667M6.667 16l9.333-9.333 9.333 9.333"></path>
</symbol>
<symbol id="icon-logout-01" viewBox="0 0 32 32">
<path stroke-linejoin="round" stroke-linecap="round" stroke-miterlimit="4" stroke-width="2.6667" stroke="currentColor" d="M20.293 27.201h4.941c0.749 0 1.467-0.295 1.997-0.82s0.827-1.237 0.827-1.98v-16.8c0-0.743-0.298-1.455-0.827-1.98s-1.248-0.82-1.997-0.82h-4.941M19.942 16.001h-16M3.942 16.001l6.114 6.4M3.942 16.001l6.114-6.4"></path>
</symbol>
<symbol id="icon-like" viewBox="0 0 32 32">
<path stroke-linejoin="round" stroke-linecap="round" stroke-miterlimit="4" stroke-width="2.6667" stroke="currentColor" d="M18.544 13.63h5.721c0.409 0 0.812 0.103 1.169 0.3s0.658 0.48 0.873 0.824c0.215 0.344 0.338 0.736 0.356 1.139s-0.068 0.805-0.251 1.167l-4.203 8.296c-0.2 0.394-0.506 0.725-0.886 0.957s-0.817 0.354-1.264 0.354h-4.824c-0.196 0-0.391-0.024-0.583-0.071l-4.517-1.114M18.544 13.63v-5.926c0-0.629-0.253-1.232-0.703-1.676s-1.061-0.694-1.698-0.694h-0.114c-0.6 0-1.087 0.48-1.087 1.073 0 0.846-0.253 1.673-0.73 2.378l-4.074 6.031v10.667M18.544 13.63h-2.402M10.137 25.481h-2.402c-0.637 0-1.248-0.25-1.698-0.694s-0.704-1.047-0.704-1.676v-7.111c0-0.629 0.253-1.232 0.704-1.676s1.061-0.694 1.698-0.694h3.002"></path>
</symbol>
<symbol id="icon-arrow-down" viewBox="0 0 32 32">
<path stroke-linejoin="round" stroke-linecap="round" stroke-miterlimit="4" stroke-width="2.6667" stroke="currentColor" d="M16 6.667v18.667M25.333 16l-9.333 9.333-9.333-9.333"></path>
</symbol>
<symbol id="icon-lightning-filled" viewBox="0 0 32 32">
<path stroke-linejoin="miter" stroke-linecap="butt" stroke-miterlimit="4" stroke-width="2.6667" stroke="currentColor" d="M7.052 18.176l9.319-14.644c0.358-0.563 1.229-0.309 1.229 0.358v10.377c0 0.074 0.060 0.133 0.133 0.133h6.586c0.539 0 0.855 0.607 0.546 1.049l-9.253 13.218c-0.374 0.534-1.213 0.27-1.213-0.382v-8.952c0-0.074-0.060-0.133-0.133-0.133h-6.652c-0.526 0-0.845-0.581-0.562-1.025z"></path>
</symbol>
<symbol id="icon-eye-close" viewBox="0 0 32 32">
<path stroke-linejoin="miter" stroke-linecap="round" stroke-miterlimit="4" stroke-width="2.6667" stroke="currentColor" d="M27.2 26l-20-20M13.6 13.922c-0.498 0.549-0.8 1.27-0.8 2.060 0 1.72 1.433 3.114 3.2 3.114 0.815 0 1.559-0.296 2.124-0.784M27.252 19.096c1.102-1.649 1.548-2.994 1.548-2.994s-2.913-9.301-12.8-9.301c-0.555 0-1.088 0.029-1.6 0.085M23.2 23.133c-1.837 1.172-4.201 2-7.2 1.951-9.764-0.16-12.8-8.982-12.8-8.982s1.41-4.504 5.6-7.244"></path>
</symbol>
<symbol id="icon-message-typing" viewBox="0 0 32 32">
<path stroke-linejoin="round" stroke-linecap="round" stroke-miterlimit="4" stroke-width="2.6667" stroke="currentColor" d="M9.999 16.113v-0.113M15.999 16.113v-0.113M21.998 16.113v-0.113M27.998 16c0 1.725-0.364 3.365-1.019 4.847l1.022 7.151-6.128-1.532c-1.736 0.976-3.739 1.533-5.873 1.533-6.627 0-11.999-5.373-11.999-12s5.372-12 11.999-12c6.627 0 11.999 5.373 11.999 12z"></path>
</symbol>
<symbol id="icon-arrow-corner" viewBox="0 0 32 32">
<path stroke-linejoin="round" stroke-linecap="round" stroke-miterlimit="4" stroke-width="2.6667" stroke="currentColor" d="M9.333 22.667l13.333-13.333M9.333 9.333h13.333v13.333"></path>
</symbol>
<symbol id="icon-mail" viewBox="0 0 32 32">
<path stroke-linejoin="round" stroke-linecap="round" stroke-miterlimit="4" stroke-width="2.6667" stroke="currentColor" d="M5.5 8.167l10.5 6.75 11.25-6.75M7 24.406c-1.657 0-3-1.343-3-3v-11.739c0-1.657 1.343-3 3-3h18c1.657 0 3 1.343 3 3v11.739c0 1.657-1.343 3-3 3h-18z"></path>
</symbol>
<symbol id="icon-arrow-left" viewBox="0 0 32 32">
<path stroke-linejoin="round" stroke-linecap="round" stroke-miterlimit="4" stroke-width="2.6667" stroke="currentColor" d="M25.333 16h-18.667M16 25.333l-9.333-9.333 9.333-9.333"></path>
</symbol>
<symbol id="icon-link-angled" viewBox="0 0 32 32">
<path stroke-linejoin="round" stroke-linecap="round" stroke-miterlimit="4" stroke-width="2.6667" stroke="currentColor" d="M9.838 13.588l-2.978 2.978c-1.112 1.112-1.752 2.625-1.74 4.216s0.637 3.113 1.802 4.242c1.129 1.165 2.652 1.791 4.242 1.802 1.626 0.012 3.104-0.592 4.216-1.704l2.978-2.978M22.162 18.413l2.978-2.978c1.112-1.112 1.752-2.625 1.74-4.216s-0.637-3.113-1.802-4.242c-1.129-1.129-2.651-1.754-4.242-1.766s-3.104 0.592-4.216 1.704l-2.978 2.978M11.484 20.437l8.934-8.934"></path>
</symbol>
<symbol id="icon-location" viewBox="0 0 32 32">
<path stroke-linejoin="miter" stroke-linecap="butt" stroke-miterlimit="4" stroke-width="2.6667" stroke="currentColor" d="M16 28.801c0 0 10.017-8.904 10.017-15.583 0-5.532-4.485-10.017-10.017-10.017s-10.017 4.485-10.017 10.017c0 6.678 10.017 15.583 10.017 15.583z"></path>
<path stroke-linejoin="miter" stroke-linecap="butt" stroke-miterlimit="4" stroke-width="2.6667" stroke="currentColor" d="M19.2 12.801c0 1.767-1.433 3.2-3.2 3.2s-3.2-1.433-3.2-3.2c0-1.767 1.433-3.2 3.2-3.2s3.2 1.433 3.2 3.2z"></path>
</symbol>
<symbol id="icon-settings" viewBox="0 0 32 32">
<path stroke-linejoin="miter" stroke-linecap="butt" stroke-miterlimit="4" stroke-width="2.6667" stroke="currentColor" d="M18.235 5.755c-0.57-2.34-3.9-2.34-4.47 0-0.085 0.352-0.252 0.678-0.487 0.953s-0.532 0.49-0.866 0.629c-0.334 0.139-0.696 0.196-1.057 0.168s-0.71-0.14-1.019-0.329c-2.058-1.254-4.413 1.101-3.159 3.159 0.81 1.329 0.091 3.063-1.421 3.431-2.342 0.569-2.342 3.9 0 4.467 0.352 0.085 0.678 0.252 0.953 0.488s0.49 0.532 0.629 0.867c0.138 0.334 0.196 0.697 0.168 1.057s-0.141 0.71-0.33 1.019c-1.254 2.058 1.101 4.413 3.159 3.159 0.309-0.189 0.658-0.301 1.019-0.329s0.723 0.029 1.058 0.168c0.334 0.138 0.631 0.354 0.867 0.629s0.402 0.602 0.488 0.953c0.569 2.341 3.9 2.341 4.467 0 0.085-0.352 0.253-0.678 0.488-0.953s0.532-0.49 0.867-0.629 0.696-0.196 1.057-0.168c0.361 0.028 0.71 0.141 1.019 0.329 2.058 1.254 4.413-1.101 3.159-3.159-0.188-0.309-0.301-0.658-0.329-1.019s0.030-0.723 0.168-1.057 0.354-0.631 0.628-0.867c0.275-0.235 0.601-0.403 0.953-0.488 2.341-0.569 2.341-3.9 0-4.467-0.352-0.085-0.678-0.252-0.953-0.488s-0.49-0.532-0.629-0.867c-0.138-0.334-0.196-0.697-0.168-1.058s0.141-0.71 0.33-1.019c1.254-2.058-1.101-4.413-3.159-3.159-0.309 0.189-0.658 0.301-1.019 0.33s-0.723-0.029-1.057-0.168c-0.334-0.138-0.631-0.354-0.867-0.629s-0.402-0.602-0.488-0.953l0.001-0.002z"></path>
<path stroke-linejoin="miter" stroke-linecap="butt" stroke-miterlimit="4" stroke-width="2.6667" stroke="currentColor" d="M18.667 16c0 1.473-1.194 2.667-2.667 2.667s-2.667-1.194-2.667-2.667c0-1.473 1.194-2.667 2.667-2.667s2.667 1.194 2.667 2.667z"></path>
</symbol>
<symbol id="icon-alert-circle" viewBox="0 0 32 32">
<path stroke-linejoin="round" stroke-linecap="round" stroke-miterlimit="4" stroke-width="2.6667" stroke="currentColor" d="M16 16v-6M16 20.447v0.053M28 16c0 6.627-5.373 12-12 12s-12-5.373-12-12c0-6.627 5.373-12 12-12s12 5.373 12 12z"></path>
</symbol>
<symbol id="icon-search" viewBox="0 0 32 32">
<path stroke-linejoin="miter" stroke-linecap="round" stroke-miterlimit="4" stroke-width="2.6667" stroke="currentColor" d="M22.569 22.719l4.631 4.48M25.707 15.253c0 5.773-4.68 10.453-10.453 10.453s-10.453-4.68-10.453-10.453c0-5.773 4.68-10.453 10.453-10.453s10.453 4.68 10.453 10.453z"></path>
</symbol>
<symbol id="icon-arrow-right" viewBox="0 0 32 32">
<path stroke-linejoin="round" stroke-linecap="round" stroke-miterlimit="4" stroke-width="2.6667" stroke="currentColor" d="M6.667 16h18.667M16 6.667l9.333 9.333-9.333 9.333"></path>
</symbol>
<symbol id="icon-edit-contained" viewBox="0 0 32 32">
<path stroke-linejoin="round" stroke-linecap="round" stroke-miterlimit="4" stroke-width="2.6667" stroke="currentColor" d="M14.798 5.072h-7.582c-2.512 0-4.549 2.037-4.549 4.549v15.164c0 2.512 2.037 4.549 4.549 4.549h15.164c2.512 0 4.549-2.037 4.549-4.549v-7.582M10.249 21.751l5.517-1.112c0.293-0.059 0.562-0.203 0.773-0.415l12.351-12.357c0.592-0.592 0.592-1.553-0.001-2.145l-2.616-2.613c-0.592-0.592-1.552-0.591-2.144 0.001l-12.352 12.358c-0.211 0.211-0.355 0.479-0.414 0.771l-1.114 5.511z"></path>
</symbol>
<symbol id="icon-trash" viewBox="0 0 32 32">
<path stroke-linejoin="miter" stroke-linecap="round" stroke-miterlimit="4" stroke-width="2.6667" stroke="currentColor" d="M5.333 8.235h21.333M12 4h8M20.667 28h-9.333c-1.473 0-2.667-1.264-2.667-2.823l-0.609-15.471c-0.032-0.802 0.574-1.471 1.332-1.471h13.22c0.758 0 1.364 0.668 1.332 1.471l-0.609 15.471c0 1.559-1.194 2.823-2.667 2.823z"></path>
</symbol>
<symbol id="icon-sms" viewBox="0 0 32 32">
<path stroke="currentColor" d="M5.474 24.143v0zM7.025 19.784l-1.333-0.016v0.016h1.333zM7.057 17.148l1.333 0.016v-0.016h-1.333zM26.534 24.164v0zM25.042 19.784l-1.333-0.017v0.017h1.333zM25.074 17.278l1.333 0.017v-0.017h-1.333zM21.6 25.386c0-0.736-0.597-1.333-1.333-1.333s-1.333 0.597-1.333 1.333h2.667zM13.067 25.386c0-0.736-0.597-1.333-1.333-1.333s-1.333 0.597-1.333 1.333h2.667zM4.098 8.486c-0.277 0.682 0.051 1.46 0.733 1.737s1.46-0.051 1.737-0.733l-2.471-1.004zM9.714 5.949c0.65-0.346 0.897-1.153 0.551-1.803s-1.153-0.897-1.803-0.551l1.252 2.355zM23.523 3.613c-0.647-0.353-1.456-0.114-1.809 0.532s-0.114 1.456 0.533 1.809l1.276-2.341zM25.426 9.465c0.27 0.685 1.044 1.022 1.729 0.752s1.022-1.044 0.752-1.729l-2.481 0.977zM6.533 24.954c0.908-1.185 1.826-2.974 1.826-5.171h-2.667c0 1.442-0.606 2.674-1.276 3.549l2.117 1.622zM8.358 19.8l0.033-2.636-2.666-0.033-0.033 2.636 2.666 0.033zM27.609 23.375c-0.641-0.873-1.233-2.121-1.233-3.591h-2.667c0 2.193 0.878 3.982 1.751 5.17l2.149-1.579zM26.375 19.801l0.033-2.505-2.666-0.035-0.033 2.505 2.666 0.035zM26.408 17.278c0-5.716-4.67-10.331-10.408-10.331v2.667c4.286 0 7.741 3.442 7.741 7.664h2.667zM25.991 26.719c0.968 0 1.58-0.675 1.828-1.251 0.246-0.572 0.298-1.401-0.21-2.093l-2.149 1.579c-0.181-0.247-0.123-0.465-0.091-0.538 0.033-0.077 0.21-0.363 0.623-0.363v2.667zM8.391 17.148c0-4.15 3.396-7.534 7.609-7.534v-2.667c-5.665 0-10.276 4.556-10.276 10.2h2.667zM6.010 24.053c0.422 0 0.596 0.297 0.625 0.366 0.027 0.066 0.089 0.287-0.102 0.536l-2.117-1.622c-0.531 0.693-0.483 1.535-0.243 2.111 0.241 0.58 0.853 1.276 1.837 1.276v-2.667zM25.991 24.053h-19.981v2.667h19.981v-2.667zM18.933 25.386c0 1.348-1.214 2.614-2.933 2.614v2.667c2.993 0 5.6-2.269 5.6-5.281h-2.667zM16 28c-1.72 0-2.933-1.266-2.933-2.614h-2.667c0 3.012 2.607 5.281 5.6 5.281v-2.667zM17.511 5.474c0 0.797-0.66 1.474-1.511 1.474v2.667c2.291 0 4.178-1.837 4.178-4.14h-2.667zM16 6.947c-0.851 0-1.511-0.676-1.511-1.474h-2.667c0 2.303 1.887 4.14 4.178 4.14v-2.667zM14.489 5.474c0-0.797 0.66-1.474 1.511-1.474v-2.667c-2.291 0-4.178 1.837-4.178 4.14h2.667zM16 4c0.851 0 1.511 0.676 1.511 1.474h2.667c0-2.303-1.887-4.14-4.178-4.14v2.667zM6.569 9.489c0.619-1.525 1.722-2.784 3.146-3.54l-1.252-2.355c-2.007 1.067-3.524 2.821-4.364 4.891l2.471 1.004zM22.247 5.954c1.471 0.802 2.599 2.038 3.179 3.511l2.481-0.977c-0.827-2.102-2.41-3.799-4.384-4.875l-1.276 2.341z"></path>
</symbol>
<symbol id="icon-down-arrow" viewBox="0 0 32 32">
<path stroke-linejoin="round" stroke-linecap="round" stroke-miterlimit="4" stroke-width="2.6667" stroke="currentColor" d="M9.333 13.333l6.668 6.107 6.666-6.107"></path>
</symbol>
<symbol id="icon-logout-02" viewBox="0 0 32 32">
<path stroke-linejoin="round" stroke-linecap="round" stroke-miterlimit="4" stroke-width="2.6667" stroke="currentColor" d="M11.707 4.799h-4.941c-0.749 0-1.467 0.295-1.997 0.82s-0.827 1.237-0.827 1.98v16.8c0 0.743 0.297 1.455 0.827 1.98s1.248 0.82 1.997 0.82h4.941M12.058 15.999h16M28.058 15.999l-6.114-6.4M28.058 15.999l-6.114 6.4"></path>
</symbol>
<symbol id="icon-filter" viewBox="0 0 32 32">
<path stroke-linejoin="round" stroke-linecap="round" stroke-miterlimit="4" stroke-width="2.6667" stroke="currentColor" d="M4 5.333h9.333M18.667 5.333h9.333M4 16h12M21.333 16h6.667M4 26.667h6.667M16 26.667h12M13.333 1.333v8M21.333 12v8M10.667 22.667v8"></path>
</symbol>
<symbol id="icon-help" viewBox="0 0 32 32">
<path stroke-linejoin="round" stroke-linecap="round" stroke-miterlimit="4" stroke-width="2.6667" stroke="currentColor" d="M15.999 22v0.053M13 12.307c0-1.688 1.343-3.057 3-3.057s3 1.369 3 3.057c0 1.688-1.343 3.057-3 3.057 0 0-0.001 0.912-0.001 2.038M28 16c0 6.627-5.373 12-12 12s-12-5.373-12-12c0-6.627 5.373-12 12-12s12 5.373 12 12z"></path>
</symbol>
<symbol id="icon-smiley-happy" viewBox="0 0 32 32">
<path stroke="currentColor" d="M12.161 12.161v-1.333c-0.736 0-1.333 0.597-1.333 1.333h1.333zM12.288 12.161h1.333c0-0.736-0.597-1.333-1.333-1.333v1.333zM19.841 12.161v-1.333c-0.736 0-1.333 0.597-1.333 1.333h1.333zM19.954 12.161h1.333c0-0.736-0.597-1.333-1.333-1.333v1.333zM12.288 12.263v1.333c0.736 0 1.333-0.597 1.333-1.333h-1.333zM12.161 12.263h-1.333c0 0.736 0.597 1.333 1.333 1.333v-1.333zM19.954 12.263v1.333c0.736 0 1.333-0.597 1.333-1.333h-1.333zM19.841 12.263h-1.333c0 0.736 0.597 1.333 1.333 1.333v-1.333zM12.697 19.191c-0.388-0.626-1.209-0.819-1.835-0.432s-0.819 1.209-0.432 1.835l2.267-1.404zM21.572 20.595c0.388-0.626 0.194-1.448-0.432-1.835s-1.448-0.194-1.835 0.432l2.267 1.404zM27.467 16.001c0 6.333-5.134 11.467-11.467 11.467v2.667c7.806 0 14.133-6.328 14.133-14.133h-2.667zM16.001 27.467c-6.333 0-11.467-5.134-11.467-11.467h-2.667c0 7.806 6.328 14.133 14.133 14.133v-2.667zM4.534 16.001c0-6.333 5.134-11.467 11.467-11.467v-2.667c-7.806 0-14.133 6.328-14.133 14.133h2.667zM16.001 4.534c6.333 0 11.467 5.134 11.467 11.467h2.667c0-7.806-6.328-14.133-14.133-14.133v2.667zM12.161 13.494h0.127v-2.667h-0.127v2.667zM19.841 13.494h0.113v-2.667h-0.113v2.667zM10.955 12.161v0.102h2.667v-0.102h-2.667zM12.288 10.93h-0.127v2.667h0.127v-2.667zM13.494 12.263v-0.102h-2.667v0.102h2.667zM18.621 12.161v0.102h2.667v-0.102h-2.667zM19.954 10.93h-0.113v2.667h0.113v-2.667zM21.174 12.263v-0.102h-2.667v0.102h2.667zM16.001 21.067c-1.373 0-2.597-0.734-3.304-1.876l-2.267 1.404c1.16 1.873 3.213 3.139 5.571 3.139v-2.667zM19.304 19.191c-0.707 1.142-1.931 1.876-3.304 1.876v2.667c2.358 0 4.411-1.266 5.571-3.139l-2.267-1.404z"></path>
</symbol>
<symbol id="icon-x" viewBox="0 0 32 32">
<path stroke-linejoin="round" stroke-linecap="round" stroke-miterlimit="4" stroke-width="2.6667" stroke="currentColor" d="M24 8l-16 16M8 8l16 16"></path>
</symbol>
<symbol id="icon-password" viewBox="0 0 32 32">
<path stroke-linejoin="round" stroke-linecap="round" stroke-miterlimit="4" stroke-width="2.6667" stroke="currentColor" d="M10.238 8.8h0.162M19.491 12.509l8.919 8.918c0.25 0.25 0.391 0.589 0.391 0.943v5.096c0 0.736-0.597 1.333-1.333 1.333h-3.321v-3.491h-3.491v-3.491l-4.3-4.049c-1.382 1.079-3.12 1.722-5.009 1.722-4.499 0-8.145-3.647-8.145-8.145s3.647-8.145 8.145-8.145c4.499 0 8.145 3.647 8.145 8.145v1.164z"></path>
</symbol>

<symbol id="icon-right-angle-quote" viewBox="0 0 20 32">
<path fill="#b7b7b9" style="fill: var(--color1, #b7b7b9)" d="M17.162 14.264c0.369 0.385 0.554 0.827 0.554 1.327s-0.185 0.942-0.554 1.327l-11.815 11.077c-0.41 0.346-0.882 0.519-1.415 0.519s-1.005-0.173-1.415-0.519c-0.369-0.384-0.554-0.827-0.554-1.327s0.185-0.942 0.554-1.327l10.462-9.75-10.462-9.75c-0.369-0.385-0.554-0.827-0.554-1.327s0.185-0.942 0.554-1.327c0.41-0.346 0.882-0.519 1.415-0.519s1.005 0.173 1.415 0.519l11.815 11.077z"></path>
</symbol>
<symbol id="icon-left-angle-quote" viewBox="0 0 20 32">
<path fill="#b7b7b9" style="fill: var(--color1, #b7b7b9)" d="M2.535 14.264c-0.369 0.385-0.554 0.827-0.554 1.327s0.185 0.942 0.554 1.327l11.815 11.077c0.41 0.346 0.882 0.519 1.415 0.519s1.005-0.173 1.415-0.519c0.369-0.384 0.554-0.827 0.554-1.327s-0.185-0.942-0.554-1.327l-10.462-9.75 10.462-9.75c0.369-0.385 0.554-0.827 0.554-1.327s-0.185-0.942-0.554-1.327c-0.41-0.346-0.882-0.519-1.415-0.519s-1.005 0.173-1.415 0.519l-11.815 11.077z"></path>
</symbol>

<symbol id="icon-edit" viewBox="0 0 32 32">
<path stroke-linejoin="round" stroke-linecap="round" stroke-miterlimit="4" stroke-width="2.9091" d="M14.689 4.078h-8.271c-2.741 0-4.963 2.222-4.963 4.963v16.542c0 2.741 2.222 4.963 4.963 4.963h16.543c2.741 0 4.963-2.222 4.963-4.963v-8.271M9.726 22.274l6.019-1.213c0.319-0.064 0.613-0.222 0.843-0.452l13.473-13.48c0.646-0.646 0.646-1.694-0.001-2.34l-2.854-2.851c-0.646-0.645-1.693-0.645-2.339 0.001l-13.475 13.482c-0.23 0.23-0.387 0.523-0.451 0.842l-1.215 6.012z"></path>
</symbol>
<symbol id="icon-delete" viewBox="0 0 29 32">
<path stroke-linejoin="miter" stroke-linecap="round" stroke-miterlimit="4" stroke-width="3.2" d="M1.6 6.682h25.6M9.6 1.6h9.6M20 30.4h-11.2c-1.767 0-3.2-1.517-3.2-3.388l-0.731-18.565c-0.038-0.962 0.689-1.765 1.599-1.765h15.864c0.91 0 1.636 0.802 1.599 1.765l-0.731 18.565c0 1.871-1.433 3.388-3.2 3.388z"></path>
</symbol>
<symbol id="icon-schedule" viewBox="0 0 24 24">
<path stroke="#F8F7F4" stroke-width="2" stroke-linecap="round" d="M8.56987 2.40039V21.6004M17.4841 10.629H12.6842M17.4841 6.51468H12.6842M5.14129 6.51468H2.39844M5.14129 10.629H2.39844M5.14129 14.7432H2.39844M6.51272 21.6004H18.8556C20.3704 21.6004 21.5984 20.3724 21.5984 18.8575V5.14325C21.5984 3.62841 20.3704 2.40039 18.8556 2.40039H6.51272C4.99788 2.40039 3.76987 3.62841 3.76987 5.14325V18.8575C3.76987 20.3724 4.99788 21.6004 6.51272 21.6004Z"></path>
</symbol>
<symbol id="icon-angle-down" viewBox="0 0 48 32">
<path stroke-linejoin="round" stroke-linecap="round" stroke-miterlimit="4" stroke-width="8" d="M4 6l20.003 18.32 19.997-18.32"></path>
</symbol>

<symbol id="icon-services" viewBox="0 0 32 32">
<path fill="none" stroke="#f8f7f4" style="stroke: var(--color1, #f8f7f4)" stroke-linejoin="round" stroke-linecap="round" stroke-miterlimit="4" stroke-width="2.9091" d="M22.331 9.677l-0.009-0M26.94 2.693l-8.437-0.649c-0.748-0.058-1.484 0.215-2.014 0.745l-13.702 13.702c-1.004 1.004-1.004 2.631 0 3.634l9.086 9.086c1.004 1.004 2.631 1.004 3.634 0l13.702-13.702c0.531-0.53 0.803-1.266 0.745-2.014l-0.649-8.437c-0.097-1.264-1.101-2.268-2.365-2.365z"></path>
</symbol>
<symbol id="icon-statistics" viewBox="0 0 32 32">
<path fill="none" stroke="#f8f7f4" style="stroke: var(--color1, #f8f7f4)" stroke-linejoin="round" stroke-linecap="round" stroke-miterlimit="4" stroke-width="2.9091" d="M22.98 22.982v-8.727M15.998 22.982v-13.964M9.016 22.982v-3.491M5.525 29.964c-1.928 0-3.491-1.563-3.491-3.491v-20.945c0-1.928 1.563-3.491 3.491-3.491h20.945c1.928 0 3.491 1.563 3.491 3.491v20.945c0 1.928-1.563 3.491-3.491 3.491h-20.945z"></path>
</symbol>
<symbol id="icon-calendar" viewBox="0 0 29 32">
<path fill="none" stroke="#f8f7f4" style="stroke: var(--color1, #f8f7f4)" stroke-linejoin="round" stroke-linecap="round" stroke-miterlimit="4" stroke-width="2.9091" d="M7.754 9.621h14.718M7.090 1.455v2.664M7.090 4.119l15.454-0M7.090 4.119c-2.561 0-4.636 2.111-4.636 4.716l0.001 15.721c0 2.605 2.076 4.716 4.636 4.716h15.454c2.561 0 4.636-2.112 4.636-4.717l-0.001-15.721c-0-2.605-2.076-4.716-4.636-4.716M22.545 1.455v2.664M11.728 23.77v-9.433l-3.091 2.358M20.227 23.77v-9.433l-3.091 2.358"></path>


<symbol id="icon-Icon" viewBox="0 0 32 32">
<path fill="none" stroke="#b7b7b9" style="stroke: var(--color1, #b7b7b9)" stroke-linejoin="round" stroke-linecap="round" stroke-miterlimit="4" stroke-width="4.5714" d="M27.879 11.297l-8.098-8.098M19.781 3.2l-8.098 8.098M19.781 3.2v16.457c0 5.049-4.093 9.143-9.143 9.143h-6.531"></path>
</symbol>
<symbol id="icon-message-chat-01" viewBox="0 0 32 32">
<path fill="none" stroke="#f8f7f4" style="stroke: var(--color2, #f8f7f4)" stroke-linejoin="round" stroke-linecap="round" stroke-miterlimit="4" stroke-width="2.6667" d="M25.333 14v-6c0-1.473-1.194-2.667-2.667-2.667h-16c-1.473 0-2.667 1.194-2.667 2.667v10.435c0 1.473 1.194 2.667 2.667 2.667h2.087v5.565l5.565-5.565h0.348M21.551 24.522l3.478 3.478v-3.478h0.304c1.473 0 2.667-1.194 2.667-2.667v-4.522c0-1.473-1.194-2.667-2.667-2.667h-8c-1.473 0-2.667 1.194-2.667 2.667v4.522c0 1.473 1.194 2.667 2.667 2.667h4.217z"></path>
</symbol>
<symbol id="icon-send-01" viewBox="0 0 32 32">
<path fill="none" stroke="#f8f7f4" style="stroke: var(--color2, #f8f7f4)" stroke-linejoin="miter" stroke-linecap="round" stroke-miterlimit="4" stroke-width="2.6667" d="M28.092 3.906l-14.219 14.219M4.359 10.98l22.141-7.682c1.364-0.473 2.672 0.835 2.199 2.199l-7.682 22.141c-0.526 1.517-2.656 1.558-3.241 0.063l-3.516-8.985c-0.176-0.449-0.531-0.804-0.979-0.979l-8.985-3.516c-1.495-0.585-1.454-2.715 0.063-3.241z"></path>
</symbol>
<symbol id="icon-send-02" viewBox="0 0 32 32">
<path fill="none" stroke="#f8f7f4" style="stroke: var(--color2, #f8f7f4)" stroke-linejoin="miter" stroke-linecap="round" stroke-miterlimit="4" stroke-width="2.6667" d="M29.579 15.333h-14.573M8.865 20.14h-2.807M8.865 15.502h-5.574M8.865 10.864h-2.807M13.792 6.797l15.283 7.41c0.941 0.456 0.941 1.797 0 2.253l-15.283 7.41c-1.047 0.508-2.16-0.563-1.694-1.629l2.803-6.406c0.14-0.32 0.14-0.684 0-1.004l-2.803-6.406c-0.466-1.066 0.646-2.136 1.694-1.629z"></path>
</symbol>
<symbol id="icon-share" viewBox="0 0 33 32">
<path fill="none" stroke="#f8f7f4" style="stroke: var(--color2, #f8f7f4)" stroke-linejoin="round" stroke-linecap="butt" stroke-miterlimit="4" stroke-width="2.6667" d="M28.667 15.278l-12.8-8.479v4.8c-11.2 2.4-11.2 13.6-11.2 13.6s4.8-6.4 11.2-5.6v4.96l12.8-9.281z"></path>

</symbol>
</defs>
</svg>
