<svg aria-hidden="true" style="position: absolute; width: 0; height: 0; overflow: hidden;" version="1.1" xmlns="http://www.w3.org/2000/svg" xmlns:xlink="http://www.w3.org/1999/xlink">
<defs>
<symbol id="icon-edit" viewBox="0 0 32 32">
<path stroke-linejoin="round" stroke-linecap="round" stroke-miterlimit="4" stroke-width="2.9091" d="M14.689 4.078h-8.271c-2.741 0-4.963 2.222-4.963 4.963v16.542c0 2.741 2.222 4.963 4.963 4.963h16.543c2.741 0 4.963-2.222 4.963-4.963v-8.271M9.726 22.274l6.019-1.213c0.319-0.064 0.613-0.222 0.843-0.452l13.473-13.48c0.646-0.646 0.646-1.694-0.001-2.34l-2.854-2.851c-0.646-0.645-1.693-0.645-2.339 0.001l-13.475 13.482c-0.23 0.23-0.387 0.523-0.451 0.842l-1.215 6.012z"></path>
</symbol>
<symbol id="icon-delete" viewBox="0 0 29 32">
<path stroke-linejoin="miter" stroke-linecap="round" stroke-miterlimit="4" stroke-width="3.2" d="M1.6 6.682h25.6M9.6 1.6h9.6M20 30.4h-11.2c-1.767 0-3.2-1.517-3.2-3.388l-0.731-18.565c-0.038-0.962 0.689-1.765 1.599-1.765h15.864c0.91 0 1.636 0.802 1.599 1.765l-0.731 18.565c0 1.871-1.433 3.388-3.2 3.388z"></path>
</symbol>
</defs>
</svg>
